<svg id="Capa_1" enable-background="new 0 0 512 512" height="512" viewBox="0 0 512 512" width="512" xmlns="http://www.w3.org/2000/svg"><path d="m38.564 193.875h434.872v310.623h-434.872z" fill="#fff292"/><path d="m38.56 193.88h30v310.62h-30z" fill="#f9e77d"/><path d="m349.19 333.89c0 27.7-12.08 52.57-31.26 69.63-16.47 14.66-38.15 23.56-61.93 23.56-23.87 0-45.63-8.97-62.12-23.73-19.07-17.05-31.07-41.85-31.07-69.46 0-51.46 41.72-93.18 93.19-93.18s93.19 41.72 93.19 93.18z" fill="#365e7d"/><path d="m317.93 366.68v36.84c-16.47 14.66-38.15 23.56-61.93 23.56-23.87 0-45.63-8.97-62.12-23.73v-36.67c0-6.29 4.32-11.87 10.75-13.92l34.36-8.66h33.83l34.36 8.66c6.43 2.05 10.75 7.63 10.75 13.92z" fill="#9bd8f9"/><path d="m265.98 426.55c-3.28.35-6.61.53-9.98.53-23.87 0-45.63-8.97-62.12-23.73v-36.67c0-6.29 4.32-11.87 10.75-13.92l34.36-8.66h20l-34.36 8.66c-6.43 2.05-10.75 7.63-10.75 13.92v36.67c14.15 12.67 32.18 21.07 52.1 23.2z" fill="#73c3f9"/><path d="m457.904 193.875h-403.809v-186.373h155.311l46.594 46.593h201.904z" fill="#f9d264"/><path d="m54.1 7.5h31.06v186.38h-31.06z" fill="#efc356"/><path d="m85.157 162.813h341.685v31.062h-341.685z" fill="#eaf6ff"/><path d="m85.157 131.929h341.685v30.853h-341.685z" fill="#9bd8f9"/><path d="m85.157 100.867h341.685v31.062h-341.685z" fill="#eaf6ff"/><path d="m224.938 302.617v10.637c0 17.038 13.907 30.849 31.062 30.849 17.155 0 31.062-13.812 31.062-30.849v-10.637c0-17.038-13.907-30.849-31.062-30.849-17.155 0-31.062 13.811-31.062 30.849z" fill="#ffcebf"/><path d="m244.938 313.254v-10.637c0-13.563 8.813-25.081 21.062-29.215-3.138-1.059-6.501-1.634-10-1.634-17.155 0-31.062 13.812-31.062 30.849v10.637c0 17.037 13.907 30.849 31.062 30.849 3.499 0 6.862-.575 10-1.634-12.249-4.133-21.062-15.652-21.062-29.215z" fill="#ffb09e"/><g><g><path d="m349.186 467.449h-186.373c-4.142 0-7.5-3.358-7.5-7.5s3.358-7.5 7.5-7.5h186.373c4.143 0 7.5 3.358 7.5 7.5s-3.357 7.5-7.5 7.5z"/></g><g><path d="m473.44 324.87c4.143 0 7.5-3.358 7.5-7.5v-123.49c0-7.666-5.69-7.547-15.54-7.5v-132.28c0-4.142-3.357-7.5-7.5-7.5h-79.69c-4.143 0-7.5 3.358-7.5 7.5s3.357 7.5 7.5 7.5h72.19v124.78h-16.06l.003-85.513c0-4.142-3.357-7.5-7.5-7.5h-341.686c-4.142 0-7.5 3.358-7.5 7.5l.002 85.513h-16.059v-171.38h144.703l44.393 44.403c1.406 1.407 3.314 2.197 5.304 2.197h89.53c4.143 0 7.5-3.358 7.5-7.5s-3.357-7.5-7.5-7.5h-86.423l-44.393-44.403c-1.407-1.406-3.315-2.197-5.304-2.197h-155.31c-4.142 0-7.5 3.358-7.5 7.5v178.88c-8.836.112-15.54-.166-15.54 7.5v310.62c0 4.142 3.358 7.5 7.5 7.5h434.88c4.143 0 7.5-3.358 7.5-7.5v-154.45c0-4.142-3.357-7.5-7.5-7.5s-7.5 3.358-7.5 7.5v146.95h-419.88v-295.62h87.73c4.142 0 7.5-3.358 7.5-7.5s-3.358-7.5-7.5-7.5h-41.13v-16.07h326.68v16.07h-252.87c-4.142 0-7.5 3.358-7.5 7.5s3.358 7.5 7.5 7.5h299.47v115.99c0 4.142 3.358 7.5 7.5 7.5zm-380.783-216.503h326.685v15.853h-326.685zm0 46.916v-15.854h326.685v15.854z"/><path d="m155.313 333.893c0 55.519 45.168 100.687 100.687 100.687 54.537 0 100.687-46.005 100.687-100.687 0-55.519-45.168-100.687-100.687-100.687s-100.687 45.168-100.687 100.687zm155.118 66.128c-31.066 25.616-78.023 25.579-109.056-.164v-33.179c0-2.941 2.138-5.614 5.339-6.705l33.205-8.372h31.968l33.204 8.372c3.202 1.09 5.34 3.764 5.34 6.705zm-77.993-86.767v-10.637c0-12.875 10.57-23.349 23.562-23.349s23.562 10.475 23.562 23.349v10.637c0 12.856-10.539 23.317-23.504 23.348h-.116c-12.966-.031-23.504-10.492-23.504-23.348zm109.248 20.639c0 18.706-6.043 36.019-16.255 50.125v-17.34c0-9.562-6.424-18.025-15.983-21.062-.145-.046-.29-.087-.437-.125l-24.707-6.229c6.361-6.841 10.257-15.979 10.257-26.01v-10.637c0-21.146-17.299-38.349-38.562-38.349s-38.562 17.203-38.562 38.349v10.637c0 10.01 3.881 19.134 10.22 25.97l-24.862 6.268c-.147.037-.292.079-.437.124-9.561 3.036-15.984 11.5-15.984 21.062v17.068c-10.094-14.057-16.062-31.266-16.062-49.854 0-47.248 38.439-85.687 85.687-85.687 47.249.003 85.687 38.442 85.687 85.69z"/></g></g></svg>