<?xml version="1.0" encoding="iso-8859-1"?>
<!-- Generator: Adobe Illustrator 19.0.0, SVG Export Plug-In . SVG Version: 6.00 Build 0)  -->
<svg version="1.1" id="Capa_1" xmlns="http://www.w3.org/2000/svg" xmlns:xlink="http://www.w3.org/1999/xlink" x="0px" y="0px"
	 viewBox="0 0 512 512" style="enable-background:new 0 0 512 512;" xml:space="preserve">
<g>
	<g>
		<path d="M256,124.902c-72.288,0-131.098,58.81-131.098,131.098S183.712,387.098,256,387.098S387.098,328.288,387.098,256
			S328.287,124.902,256,124.902z M256,344.03c-48.618,0-88.03-39.413-88.03-88.03c0-48.618,39.413-88.03,88.03-88.03
			s88.03,39.413,88.03,88.03C344.03,304.617,304.617,344.03,256,344.03z"/>
	</g>
</g>
<g>
	<g>
		<path d="M501.997,218.55L411.431,61.685c-13.336-23.1-38.191-37.45-64.866-37.45H165.434c-26.674,0-51.529,14.35-64.866,37.45
			L10.002,218.55c-13.336,23.1-13.336,51.8,0,74.901l90.566,156.865c13.336,23.1,38.191,37.45,64.866,37.45h181.132
			c26.674,0,51.529-14.35,64.866-37.45l90.566-156.865C515.334,270.35,515.334,241.649,501.997,218.55z M256,417.058
			c-88.808,0-161.058-72.25-161.058-161.058S167.192,94.942,256,94.942S417.058,167.192,417.058,256S344.807,417.058,256,417.058z"
			/>
	</g>
</g>
<g>
</g>
<g>
</g>
<g>
</g>
<g>
</g>
<g>
</g>
<g>
</g>
<g>
</g>
<g>
</g>
<g>
</g>
<g>
</g>
<g>
</g>
<g>
</g>
<g>
</g>
<g>
</g>
<g>
</g>
</svg>
